# xmcd
#
# Track frame offsets:
#	150
#	15762
#	34196
#	50288
#	65516
#	84604
#	105332
#	121716
#	148212
#	166401
#	185240
#	205253
#	227151
#	247077
#	269396
#	285317
#	316942
#	335617
#
# Disc length: 4724 seconds
#
# Revision: 13
# Processed by: cddbd v1.5.2PL0 Copyright (c) Steve Scherf et al.
# Submitted via: Jack! The Knife 19 Blackthorn
#
DISCID=fd127212
DTITLE=Barry White - The Ultimate Collection
DYEAR=1995
DGENRE=Pop
TTITLE0=You're The First, The Last, My Everything
TTITLE1=Can't Get Enough Of Your Love Babe
TTITLE2=Let The Music Play
TTITLE3=Don't Make Me Wait Too Long
TTITLE4=I'll Do For You Anything You Want Me To
TTITLE5=Sho' You Right
TTITLE6=What Am I Gonna Do With You
TTITLE7=Come On
TTITLE8=I'm Gonna Love You Just A Little More Babe
TTITLE9=Never, Never Gonna Give You Up
TTITLE10=Baby We Better Try And Get Together
TTITLE11=Just The Way You Are
TTITLE12=I'm Qualified To Satisfy You
TTITLE13=Dark And Lovely (Over There)
TTITLE14=You See The Trouble With Me
TTITLE15=It's Ecstasy When You Lay Down Next To Me
TTITLE16=The Right Night
TTITLE17=Loves Theme
EXTD=
EXTT0=
EXTT1=
EXTT2=
EXTT3=
EXTT4=
EXTT5=
EXTT6=
EXTT7=
EXTT8=
EXTT9=
EXTT10=
EXTT11=
EXTT12=
EXTT13=
EXTT14=
EXTT15=
EXTT16=
EXTT17=
PLAYORDER=
